<svg xmlns="http://www.w3.org/2000/svg" version="1.1" xmlns:xlink="http://www.w3.org/1999/xlink" width="512" height="512" x="0" y="0" viewBox="0 0 24 24" style="enable-background:new 0 0 512 512" xml:space="preserve" class=""><g><path fill="#000000" fill-rule="evenodd" d="M14.802 1.545 12 0 9.199 1.545 6 1.608 4.346 4.346 1.608 6l-.063 3.199L0 12l1.545 2.802L1.608 18l2.738 1.654L6 22.392l3.199.063L12 24l2.802-1.545L18 22.392l1.654-2.738L22.392 18l.063-3.198L24 12l-1.545-2.801L22.392 6l-2.738-1.654L18 1.608l-3.198-.063ZM9.788 16.362l8.37-7.623-1.347-1.478-7.002 6.377-2.64-2.478L5.8 12.618l3.988 3.744Z" clip-rule="evenodd" opacity="1" data-original="#000000" class=""></path></g></svg>