<svg xmlns="http://www.w3.org/2000/svg" width="84.3" height="66" viewBox="0 0 84.3 66"><defs><style>.a{fill:#c36788;}.b{fill:#6da592;}.c{fill:#6f89bb;}</style></defs><path class="a" d="M19.6,23.1l-19,19a1.93,1.93,0,0,0,0,2.8L19.1,63.4a1.93,1.93,0,0,0,2.8,0l2.2-2.2a1.93,1.93,0,0,0,0-2.8L11.9,46.2a1.93,1.93,0,0,1,0-2.8L24.5,30.8a2,2,0,0,0,.4-2.2l-2.1-4.9A1.94,1.94,0,0,0,19.6,23.1Z"/><path class="b" d="M37.8,49.9h5.6a2,2,0,0,0,1.8-1.2L66.4,2.8A2,2,0,0,0,64.6,0H61.4a2,2,0,0,0-1.8,1.1L36.1,47A2,2,0,0,0,37.8,49.9Z"/><path class="c" d="M64.7,62.4l19-19a1.93,1.93,0,0,0,0-2.8L65.2,22.1a1.93,1.93,0,0,0-2.8,0l-2.2,2.2a1.93,1.93,0,0,0,0,2.8L72.4,39.3a1.93,1.93,0,0,1,0,2.8L59.8,54.7a2,2,0,0,0-.4,2.2l2.1,4.9A1.93,1.93,0,0,0,64.7,62.4Z"/><circle class="b" cx="38.2" cy="58.5" r="7.5"/><path class="b" d="M31.9,54.4l-6.6,8.3a2,2,0,0,0,1.6,3.2H38.7Z"/></svg>