<svg xmlns="http://www.w3.org/2000/svg" width="512" height="512" viewBox="0 0 512 512"><defs><style>.a{fill:#fff;}</style></defs><circle cx="256" cy="256" r="256"/><path class="a" d="M414,247.6l-74.46-78.89A12.08,12.08,0,1,0,322,185.28l66.65,70.6L322,326.49a12.08,12.08,0,0,0,17.57,16.58L414,264.18a12.08,12.08,0,0,0,0-16.58ZM190.64,326.49,124,255.88l66.64-70.6a12.08,12.08,0,0,0-17.57-16.58L98.61,247.59a12.08,12.08,0,0,0,0,16.58l74.47,78.9a12.08,12.08,0,0,0,17.56-16.58ZM275.86,128a12.09,12.09,0,0,0-13.77,10.11L226.67,370a12.08,12.08,0,0,0,10.12,13.76,11.49,11.49,0,0,0,1.84.14,12.08,12.08,0,0,0,11.92-10.25L286,141.78A12.08,12.08,0,0,0,275.86,128Z"/></svg>